# xmcd CD database file
#
# Track frame offsets:
#	150
#	19548
#	34643
#	48583
#	68958
#	87827
#	105508
#	126640
#	149101
#	174979
#	203433
#	225370
#	242373
#	259440
#	273265
#	291556
#	322985
#
# Disc length: 4482 seconds
#
# Revision: 1
# Processed by: cddbd v1.4PL0 Copyright (c) Steve Scherf et al.
# Submitted via: CDex 1.50beta8
#
DISCID=f2118011
DTITLE=Psychofader - Lounge Bar
DYEAR=2002
DGENRE=Lounge
TTITLE0=Sweet Sofa
TTITLE1=Out of the shell
TTITLE2=Montmartre ( I'm drunk)
TTITLE3=Heaven's Balls
TTITLE4=Lucid dream
TTITLE5=A house near the sun
TTITLE6=Celsius 23.7
TTITLE7=Funkin'
TTITLE8=Clouds Hi
TTITLE9=Flying home
TTITLE10=Father and son
TTITLE11=Danteraz corral
TTITLE12=Chambre d'amour
TTITLE13=Sexual trip
TTITLE14=Organs from out of space
TTITLE15=Hamac
TTITLE16=Lounge Love
EXTD=YEAR: 2002
EXTT0=
EXTT1=
EXTT2=
EXTT3=
EXTT4=
EXTT5=
EXTT6=
EXTT7=
EXTT8=
EXTT9=
EXTT10=
EXTT11=
EXTT12=
EXTT13=
EXTT14=
EXTT15=
EXTT16=
PLAYORDER=
